name analog
datacolumns 19
datarows 51
range 0.1545 0.1795
endheader
time	ground_force_vx	ground_force_vy	ground_force_vz	ground_force_px	ground_force_py	ground_force_pz	l_ground_force_vx	l_ground_force_vy	l_ground_force_vz	l_ground_force_px	l_ground_force_py	l_ground_force_pz	ground_torque_x	ground_torque_y	ground_torque_z	l_ground_torque_x	l_ground_torque_y	l_ground_torque_z
0.1545	-0.0	-0.0	-0.0	-0.0	-0.0	-0.0	1.620435118675232	-6.818479537963867	-884.0518798828125	-0.0	-0.0	-0.0	-0.0	-0.0	-0.0	260048.375	-8931.3935546875	-1647.912109375
0.155	-0.0	-0.0	-0.0	-0.0	-0.0	-0.0	0.9522181749343872	-7.572167873382568	-880.5604248046875	-0.0	-0.0	-0.0	-0.0	-0.0	-0.0	259004.875	-8146.91259765625	-1972.9532470703125
0.1555	-0.0	-0.0	-0.0	-0.0	-0.0	-0.0	-0.1484822332859039	-7.172097682952881	-878.5367431640625	-0.0	-0.0	-0.0	-0.0	-0.0	-0.0	258074.671875	-7359.33447265625	-2293.9267578125
0.156	-0.0	-0.0	-0.0	-0.0	-0.0	-0.0	-0.5087971687316895	-6.405890464782715	-877.0891723632812	-0.0	-0.0	-0.0	-0.0	-0.0	-0.0	257930.390625	-6758.62646484375	-2584.485595703125
0.1565	-0.0	-0.0	-0.0	-0.0	-0.0	-0.0	-0.8402547240257263	-4.252817630767822	-877.8594360351562	-0.0	-0.0	-0.0	-0.0	-0.0	-0.0	257468.140625	-6400.2236328125	-2946.25146484375
0.157	-0.0	-0.0	-0.0	-0.0	-0.0	-0.0	-0.3781947195529938	-2.2731146812438965	-877.0873413085938	-0.0	-0.0	-0.0	-0.0	-0.0	-0.0	257521.421875	-6163.37255859375	-3045.335693359375
0.1575	-0.0	-0.0	-0.0	-0.0	-0.0	-0.0	0.2661323547363281	-0.2373306453227996	-877.9329833984375	-0.0	-0.0	-0.0	-0.0	-0.0	-0.0	257249.515625	-5858.0244140625	-3247.33740234375
0.158	-0.0	-0.0	-0.0	-0.0	-0.0	-0.0	0.6907305717468262	1.1104366779327393	-877.8755493164062	-0.0	-0.0	-0.0	-0.0	-0.0	-0.0	257272.25	-6061.53369140625	-3249.593994140625
0.1585	-0.0	-0.0	-0.0	-0.0	-0.0	-0.0	0.7944010496139526	2.9297337532043457	-879.9690551757812	-0.0	-0.0	-0.0	-0.0	-0.0	-0.0	257385.375	-5828.06689453125	-3499.047607421875
0.159	-0.0	-0.0	-0.0	-0.0	-0.0	-0.0	0.8639727830886841	4.396863460540772	-879.862060546875	-0.0	-0.0	-0.0	-0.0	-0.0	-0.0	257307.0	-5573.79443359375	-3676.60986328125
0.1595	-0.0	-0.0	-0.0	-0.0	-0.0	-0.0	-0.0461289100348949	6.182518005371094	-882.3829345703125	-0.0	-0.0	-0.0	-0.0	-0.0	-0.0	257603.359375	-5373.431640625	-4048.19677734375
0.16	-0.0	-0.0	-0.0	-0.0	-0.0	-0.0	-1.087531328201294	8.305521011352539	-884.9182739257812	-0.0	-0.0	-0.0	-0.0	-0.0	-0.0	257673.671875	-5316.4775390625	-4550.4404296875
0.1605	-0.0	-0.0	-0.0	-0.0	-0.0	-0.0	-2.0174038410186768	10.399115562438965	-887.645751953125	-0.0	-0.0	-0.0	-0.0	-0.0	-0.0	258070.640625	-4990.20263671875	-4938.36865234375
0.161	-0.0	-0.0	-0.0	-0.0	-0.0	-0.0	-3.3481404781341557	10.974658012390137	-892.0933227539062	-0.0	-0.0	-0.0	-0.0	-0.0	-0.0	258318.6875	-4698.67578125	-5229.03662109375
0.1615	-0.0	-0.0	-0.0	-0.0	-0.0	-0.0	-4.41791582107544	11.413634300231934	-893.56884765625	-0.0	-0.0	-0.0	-0.0	-0.0	-0.0	258344.515625	-4521.4072265625	-5503.357421875
0.162	-0.0	-0.0	-0.0	-0.0	-0.0	-0.0	-5.527733325958252	11.040210723876951	-896.621337890625	-0.0	-0.0	-0.0	-0.0	-0.0	-0.0	257807.21875	-4075.26025390625	-5623.68603515625
0.1625	-0.0	-0.0	-0.0	-0.0	-0.0	-0.0	-6.277892112731934	10.619085311889648	-897.8391723632812	-0.0	-0.0	-0.0	-0.0	-0.0	-0.0	256839.59375	-3709.4716796875	-5904.1962890625
0.163	-0.0	-0.0	-0.0	-0.0	-0.0	-0.0	-6.69671106338501	8.91859245300293	-895.752197265625	-0.0	-0.0	-0.0	-0.0	-0.0	-0.0	255232.75	-3749.45703125	-5690.41796875
0.1635	-0.0	-0.0	-0.0	-0.0	-0.0	-0.0	-5.675848960876465	5.231834411621094	-892.0823974609375	-0.0	-0.0	-0.0	-0.0	-0.0	-0.0	253272.4375	-3912.892578125	-5082.8115234375
0.164	-0.0	-0.0	-0.0	-0.0	-0.0	-0.0	-3.7033145427703857	1.2785090208053589	-889.1117553710938	-0.0	-0.0	-0.0	-0.0	-0.0	-0.0	251605.9375	-4037.166015625	-4325.72216796875
0.1645	-0.0	-0.0	-0.0	-0.0	-0.0	-0.0	-2.505120277404785	-3.5552661418914795	-885.4535522460938	-0.0	-0.0	-0.0	-0.0	-0.0	-0.0	249462.703125	-4173.26513671875	-3614.174560546875
0.165	-0.0	-0.0	-0.0	-0.0	-0.0	-0.0	-1.153240203857422	-7.221028804779053	-879.2520751953125	-0.0	-0.0	-0.0	-0.0	-0.0	-0.0	246607.6875	-4087.654052734375	-2895.06201171875
0.1655	-0.0	-0.0	-0.0	-0.0	-0.0	-0.0	-0.243768036365509	-10.75446605682373	-875.0590209960938	-0.0	-0.0	-0.0	-0.0	-0.0	-0.0	244026.421875	-3877.935546875	-2206.021484375
0.166	-0.0	-0.0	-0.0	-0.0	-0.0	-0.0	0.8865262269973755	-13.40382957458496	-866.6775512695312	-0.0	-0.0	-0.0	-0.0	-0.0	-0.0	241014.703125	-3860.689453125	-1716.0181884765625
0.1665	-0.0	-0.0	-0.0	-0.0	-0.0	-0.0	1.4635870456695557	-16.074827194213867	-859.0859375	-0.0	-0.0	-0.0	-0.0	-0.0	-0.0	238006.1875	-3889.26220703125	-1500.934814453125
0.167	-0.0	-0.0	-0.0	-0.0	-0.0	-0.0	1.862876296043396	-16.847299575805664	-850.7080078125	-0.0	-0.0	-0.0	-0.0	-0.0	-0.0	235220.8125	-3607.585693359375	-1211.759765625
0.1675	-0.0	-0.0	-0.0	-0.0	-0.0	-0.0	2.128843069076538	-17.57601547241211	-844.5985717773438	-0.0	-0.0	-0.0	-0.0	-0.0	-0.0	232797.71875	-3783.47607421875	-1018.9256591796876
0.168	-0.0	-0.0	-0.0	-0.0	-0.0	-0.0	2.527637004852295	-17.2451171875	-838.314697265625	-0.0	-0.0	-0.0	-0.0	-0.0	-0.0	230744.90625	-3807.021484375	-848.076904296875
0.1685	-0.0	-0.0	-0.0	-0.0	-0.0	-0.0	3.0381994247436523	-16.207317352294922	-833.25146484375	-0.0	-0.0	-0.0	-0.0	-0.0	-0.0	228901.484375	-3939.547119140625	-676.8612060546875
0.169	-0.0	-0.0	-0.0	-0.0	-0.0	-0.0	3.0161666870117188	-15.590091705322266	-829.321533203125	-0.0	-0.0	-0.0	-0.0	-0.0	-0.0	228105.78125	-3869.1435546875	-498.760986328125
0.1695	-0.0	-0.0	-0.0	-0.0	-0.0	-0.0	3.614130973815918	-15.036490440368652	-826.4375610351562	-0.0	-0.0	-0.0	-0.0	-0.0	-0.0	226752.90625	-4069.5	-423.8685607910156
0.17	-0.0	-0.0	-0.0	-0.0	-0.0	-0.0	3.705271005630493	-14.795788764953612	-824.4430541992188	-0.0	-0.0	-0.0	-0.0	-0.0	-0.0	225748.0	-3860.108642578125	-416.4194641113281
0.1705	-0.0	-0.0	-0.0	-0.0	-0.0	-0.0	2.4839019775390625	-14.264737129211426	-820.1571044921875	-0.0	-0.0	-0.0	-0.0	-0.0	-0.0	224574.890625	-3770.274169921875	-528.525146484375
0.171	-0.0	-0.0	-0.0	-0.0	-0.0	-0.0	1.2872103452682495	-13.644800186157228	-815.1692504882812	-0.0	-0.0	-0.0	-0.0	-0.0	-0.0	223964.296875	-3983.7744140625	-744.1513061523438
0.1715	-0.0	-0.0	-0.0	-0.0	-0.0	-0.0	0.9778934717178344	-11.682092666625977	-815.0133056640625	-0.0	-0.0	-0.0	-0.0	-0.0	-0.0	222811.421875	-3796.76611328125	-809.7496337890625
0.17200000000000001	-0.0	-0.0	-0.0	-0.0	-0.0	-0.0	0.930326759815216	-9.827485084533691	-810.9942016601562	-0.0	-0.0	-0.0	-0.0	-0.0	-0.0	222129.53125	-4091.31103515625	-662.429443359375
0.17250000000000001	-0.0	-0.0	-0.0	-0.0	-0.0	-0.0	1.599231481552124	-7.88210391998291	-808.2860107421875	-0.0	-0.0	-0.0	-0.0	-0.0	-0.0	221688.171875	-3996.865966796875	-683.1375732421875
0.17300000000000001	-0.0	-0.0	-0.0	-0.0	-0.0	-0.0	1.155977487564087	-5.719510555267334	-806.9632568359375	-0.0	-0.0	-0.0	-0.0	-0.0	-0.0	221269.375	-3989.982421875	-637.9497680664062
0.17350000000000002	-0.0	-0.0	-0.0	-0.0	-0.0	-0.0	0.5936008095741272	-4.03849983215332	-805.0475463867188	-0.0	-0.0	-0.0	-0.0	-0.0	-0.0	221391.0625	-3906.978271484375	-637.8839111328125
0.17400000000000002	-0.0	-0.0	-0.0	-0.0	-0.0	-0.0	0.156027153134346	-3.091259002685547	-807.94921875	-0.0	-0.0	-0.0	-0.0	-0.0	-0.0	221092.546875	-3581.377197265625	-735.1211547851562
0.17450000000000002	-0.0	-0.0	-0.0	-0.0	-0.0	-0.0	-0.0887107849121093	-2.2963638305664062	-806.9733276367188	-0.0	-0.0	-0.0	-0.0	-0.0	-0.0	221678.71875	-3581.12890625	-682.9192504882812
0.17500000000000002	-0.0	-0.0	-0.0	-0.0	-0.0	-0.0	-0.5535262823104858	-2.427022218704224	-808.5658569335938	-0.0	-0.0	-0.0	-0.0	-0.0	-0.0	221618.484375	-3722.771240234375	-741.3857421875
0.17550000000000002	-0.0	-0.0	-0.0	-0.0	-0.0	-0.0	-1.174435019493103	-3.217869997024536	-808.0203247070312	-0.0	-0.0	-0.0	-0.0	-0.0	-0.0	221466.625	-3566.249755859375	-816.75634765625
0.176	-0.0	-0.0	-0.0	-0.0	-0.0	-0.0	-1.6643590927124023	-3.659186124801636	-809.9647216796875	-0.0	-0.0	-0.0	-0.0	-0.0	-0.0	221241.140625	-3539.991455078125	-788.9002075195312
0.1765	-0.0	-0.0	-0.0	-0.0	-0.0	-0.0	-1.2333674430847168	-4.739812850952148	-810.2977905273438	-0.0	-0.0	-0.0	-0.0	-0.0	-0.0	221452.0	-3424.7294921875	-827.0520629882812
0.177	-0.0	-0.0	-0.0	-0.0	-0.0	-0.0	-1.2931939363479614	-6.182518005371094	-811.5111083984375	-0.0	-0.0	-0.0	-0.0	-0.0	-0.0	221252.96875	-3585.395751953125	-630.931640625
0.1775	-0.0	-0.0	-0.0	-0.0	-0.0	-0.0	-0.9758186340332032	-7.414220809936523	-811.9616088867188	-0.0	-0.0	-0.0	-0.0	-0.0	-0.0	221500.328125	-3789.67919921875	-527.904541015625
0.178	-0.0	-0.0	-0.0	-0.0	-0.0	-0.0	-0.2242688834667205	-9.11797332763672	-812.824951171875	-0.0	-0.0	-0.0	-0.0	-0.0	-0.0	221497.96875	-3953.165771484375	-388.1079711914063
0.1785	-0.0	-0.0	-0.0	-0.0	-0.0	-0.0	0.2244188338518142	-9.82973289489746	-814.8378295898438	-0.0	-0.0	-0.0	-0.0	-0.0	-0.0	221453.328125	-4509.71435546875	-101.83723449707033
0.179	-0.0	-0.0	-0.0	-0.0	-0.0	-0.0	1.2211518287658691	-9.486346244812012	-814.8162841796875	-0.0	-0.0	-0.0	-0.0	-0.0	-0.0	221562.171875	-4625.6181640625	146.77914428710938
0.1795	-0.0	-0.0	-0.0	-0.0	-0.0	-0.0	2.019615888595581	-10.109954833984377	-816.6883544921875	-0.0	-0.0	-0.0	-0.0	-0.0	-0.0	221729.71875	-5189.85986328125	379.501708984375
